<svg xmlns="http://www.w3.org/2000/svg" viewBox="0 0 120 120" width="100%" height="100%">
  <defs>
    <style>
      @import url('https://fonts.googleapis.com/css2?family=Poppins:wght@700&amp;display=swap');
      .text { font-family: 'Poppins', sans-serif; font-weight: 700; font-size: 110px; fill: #18D8DB; letter-spacing: -2px; }
    </style>
  </defs>
  <!-- N -->
  <text x="25" y="105" class="text">N</text>
  
  <g transform="translate(10, 15) rotate(-8) scale(0.75)">
     <path d="M 35 60 C 20 65, 15 75, 25 80" fill="none" stroke="#3F2A1B" stroke-width="2" stroke-linecap="round" />
     <ellipse cx="60" cy="62" rx="55" ry="14" fill="#E4BD70" stroke="#3F2A1B" stroke-width="3" />
     <path d="M 15 62 Q 60 76 105 62 M 25 67 Q 60 80 95 67" fill="none" stroke="#C49B50" stroke-width="1.5" />
     <path d="M 32 60 C 32 20, 42 16, 60 16 C 78 16, 88 20, 88 60 Z" fill="#E4BD70" stroke="#3F2A1B" stroke-width="3" stroke-linejoin="round" />
     <path d="M 45 25 L 45 48 M 60 20 L 60 52 M 75 25 L 75 48" fill="none" stroke="#C49B50" stroke-width="2" stroke-linecap="round" />
     <path d="M 38 32 C 50 35, 70 35, 82 32 M 36 42 Q 60 48 84 42" fill="none" stroke="#C49B50" stroke-width="1.5" stroke-linecap="round" />
     <path d="M 31.5 54 C 50 63, 70 63, 88.5 54 L 88.5 60 C 70 70, 50 70, 31.5 60 Z" fill="#D84539" stroke="#3F2A1B" stroke-width="3" stroke-linejoin="round" />
     <path d="M 32 62 C 25 58, 20 62, 22 66" fill="none" stroke="#3F2A1B" stroke-width="2" stroke-linecap="round" />
     <path d="M 22 66 Q 16 75 20 85" fill="none" stroke="#3F2A1B" stroke-width="2.5" stroke-linecap="round" />
  </g>
</svg>
